<?xml version="1.0" standalone="no"?>
<!DOCTYPE svg PUBLIC "-//W3C//DTD SVG 20010904//EN"
 "http://www.w3.org/TR/2001/REC-SVG-20010904/DTD/svg10.dtd">
<svg version="1.0" xmlns="http://www.w3.org/2000/svg"
 width="47.000000pt" height="50.000000pt" viewBox="0 0 47.000000 50.000000"
 preserveAspectRatio="xMidYMid meet">

<g transform="translate(0.000000,50.000000) scale(0.100000,-0.100000)"
fill="#000000" stroke="none">
<path d="M190 481 c0 -6 -20 -13 -45 -16 -55 -9 -74 -28 -56 -57 15 -24 7 -36
-13 -19 -29 24 -51 -20 -24 -47 9 -9 8 -12 -4 -12 -25 0 -25 -158 0 -168 14
-6 17 -21 17 -82 l0 -75 35 0 c34 0 35 1 36 37 1 51 8 55 35 19 20 -27 29 -31
69 -31 39 0 51 5 76 31 l29 31 5 -44 c5 -42 6 -43 40 -43 l35 0 0 78 c0 65 3
78 18 83 20 6 25 79 5 87 -10 4 -10 6 0 6 17 1 16 71 -1 71 -9 0 -12 9 -9 29
4 32 -12 48 -32 32 -11 -9 -13 -4 -12 26 1 36 0 37 -43 45 -25 4 -49 12 -55
18 -13 13 -106 13 -106 1z m80 -31 c0 -16 -7 -20 -30 -20 -23 0 -30 4 -30 20
0 16 7 20 30 20 23 0 30 -4 30 -20z m-119 -40 c9 -28 18 -40 31 -40 12 0 18
-7 18 -24 0 -18 -7 -25 -27 -29 -16 -3 -36 -9 -45 -12 -16 -6 -18 -1 -18 40 0
25 -5 55 -10 66 -13 24 -5 39 20 39 14 0 23 -12 31 -40z m236 4 c-3 -20 -7
-38 -9 -39 -2 -1 -23 -5 -48 -8 -25 -3 -37 -3 -28 0 10 2 23 22 29 44 10 32
17 39 37 39 23 0 24 -3 19 -36z m-119 -17 c3 -13 -3 -17 -27 -17 -20 0 -31 5
-31 14 0 29 53 32 58 3z m2 -52 c0 -21 -5 -25 -30 -25 -25 0 -30 4 -30 25 0
21 5 25 30 25 25 0 30 -4 30 -25z m110 -15 c0 -28 -2 -30 -27 -24 -16 4 -37
11 -48 15 -17 7 -17 8 -2 8 9 1 17 8 17 16 0 10 10 15 30 15 27 0 30 -3 30
-30z m67 -32 c-3 -8 -6 -5 -6 6 -1 11 2 17 5 13 3 -3 4 -12 1 -19z m-239 -37
c26 -23 28 -37 6 -45 -39 -15 -84 9 -84 46 0 24 47 24 78 -1z m152 0 c0 -41
-83 -70 -97 -34 -9 22 31 53 68 53 22 0 29 -5 29 -19z m-250 -10 c0 -5 -12
-11 -27 -13 -22 -2 -28 -8 -28 -28 0 -19 7 -26 30 -32 29 -6 29 -6 -5 -5 -38
2 -47 18 -36 63 5 19 13 24 36 24 17 0 30 -4 30 -9z m329 -5 c7 -8 11 -27 9
-43 -3 -24 -8 -28 -38 -30 l-35 -2 33 10 c43 13 45 47 2 56 -16 3 -30 9 -30
14 0 15 47 10 59 -5z m-343 -27 c10 -17 -13 -36 -27 -22 -12 12 -4 33 11 33 5
0 12 -5 16 -11z m324 -9 c0 -11 -4 -20 -9 -20 -14 0 -23 18 -16 30 10 17 25
11 25 -10z m-153 -16 c8 -22 -11 -37 -36 -29 -23 7 -28 30 -8 38 23 10 38 7
44 -9z m-120 -20 c12 -12 13 -18 4 -27 -9 -9 -14 -8 -21 3 -11 17 -13 40 -4
40 3 0 12 -7 21 -16z m78 -20 c20 -13 28 -14 40 -4 18 15 40 7 55 -20 9 -17 6
-25 -22 -50 -40 -37 -87 -40 -123 -8 -30 26 -31 32 -4 69 24 34 23 34 54 13z
m-99 -19 c8 -34 -1 -55 -26 -55 -25 0 -34 21 -26 55 9 34 43 34 52 0z m290 0
c8 -34 -1 -55 -26 -55 -25 0 -34 21 -26 55 9 34 43 34 52 0z m-298 -72 c-10
-2 -26 -2 -35 0 -10 3 -2 5 17 5 19 0 27 -2 18 -5z m290 0 c-10 -2 -26 -2 -35
0 -10 3 -2 5 17 5 19 0 27 -2 18 -5z m-331 -45 c-3 -8 -6 -5 -6 6 -1 11 2 17
5 13 3 -3 4 -12 1 -19z m50 0 c-3 -8 -6 -5 -6 6 -1 11 2 17 5 13 3 -3 4 -12 1
-19z m240 0 c-3 -8 -6 -5 -6 6 -1 11 2 17 5 13 3 -3 4 -12 1 -19z m50 0 c-3
-8 -6 -5 -6 6 -1 11 2 17 5 13 3 -3 4 -12 1 -19z"/>
<path d="M230 450 c0 -5 7 -10 15 -10 8 0 15 5 15 10 0 6 -7 10 -15 10 -8 0
-15 -4 -15 -10z"/>
<path d="M138 363 c12 -2 22 -11 22 -19 0 -8 7 -14 15 -14 8 0 15 6 15 14 0
14 -32 27 -60 25 -8 -1 -5 -4 8 -6z"/>
<path d="M120 335 c0 -8 7 -15 15 -15 8 0 15 7 15 15 0 8 -7 15 -15 15 -8 0
-15 -7 -15 -15z"/>
<path d="M230 400 c0 -5 7 -10 15 -10 8 0 15 5 15 10 0 6 -7 10 -15 10 -8 0
-15 -4 -15 -10z"/>
<path d="M230 345 c0 -8 7 -15 15 -15 8 0 15 7 15 15 0 8 -7 15 -15 15 -8 0
-15 -7 -15 -15z"/>
<path d="M349 341 c11 -7 10 -10 -5 -14 -16 -4 -16 -5 4 -6 13 -1 22 5 22 14
0 8 -8 15 -17 15 -15 0 -15 -2 -4 -9z"/>
<path d="M140 257 c0 -20 22 -37 47 -37 25 0 30 19 11 38 -16 16 -58 15 -58
-1z"/>
<path d="M288 256 c-24 -17 -23 -36 1 -36 33 0 51 11 51 31 0 22 -27 25 -52 5z"/>
<path d="M193 118 c2 -8 22 -13 52 -13 30 0 50 5 53 13 3 9 -12 12 -53 12 -41
0 -56 -3 -52 -12z"/>
<path d="M223 73 c9 -2 25 -2 35 0 9 3 1 5 -18 5 -19 0 -27 -2 -17 -5z"/>
<path d="M83 124 c-8 -21 13 -42 28 -27 13 13 5 43 -11 43 -6 0 -13 -7 -17
-16z"/>
<path d="M373 124 c-8 -21 13 -42 28 -27 13 13 5 43 -11 43 -6 0 -13 -7 -17
-16z"/>
</g>
</svg>
